<svg width="264" height="352" viewBox="0 0 264 352" fill="none" xmlns="http://www.w3.org/2000/svg">
<circle cx="173.403" cy="173.222" r="152.942" fill="#F2F5F9"/>
<circle opacity="0.8" cx="95.6652" cy="10.1398" r="10.1398" fill="#F2F5F9" fill-opacity="0.5"/>
<circle opacity="0.8" cx="11" cy="218" r="4" fill="#F2F5F9" fill-opacity="0.5"/>
<ellipse opacity="0.8" cx="5.19615" cy="5.18216" rx="5.19615" ry="5.18216" transform="matrix(-0.884215 0.467081 -0.4706 -0.882347 20.5886 86.7428)" fill="#95B9CE" fill-opacity="0.1"/>
<g filter="url(#filter0_d_8348_1052)">
<path d="M225.355 67.8351C224.786 67.8822 224.203 67.6697 223.797 67.2084L211.288 53.0037C210.607 52.2302 210.682 51.0504 211.455 50.3694C212.23 49.6858 213.409 49.7629 214.09 50.5363L226.6 64.7409C227.28 65.5145 227.206 66.6944 226.433 67.3755C226.12 67.6513 225.74 67.8032 225.355 67.8351Z" fill="#FEFEFF"/>
<path d="M242.945 51.1304C242.294 51.1844 241.633 50.8945 241.241 50.3143L230.196 33.9498C229.619 33.0949 229.845 31.9348 230.699 31.3578C231.552 30.7812 232.715 31.0062 233.291 31.8605L244.337 48.2248C244.913 49.0799 244.688 50.2402 243.833 50.817C243.559 51.002 243.253 51.1048 242.945 51.1304Z" fill="#FEFEFF"/>
<path d="M253.883 49.445C253.225 49.4996 252.559 49.2028 252.169 48.6132L235.766 23.7885C235.197 22.9285 235.434 21.7705 236.294 21.2019C237.155 20.6344 238.314 20.8703 238.881 21.7305L255.284 46.5553C255.853 47.4153 255.616 48.5733 254.756 49.1421C254.486 49.3205 254.185 49.42 253.883 49.445Z" fill="#FEFEFF"/>
<path d="M219.912 79.904C219.269 80.0507 218.567 79.8507 218.098 79.3216L198.365 57.052C197.681 56.2806 197.752 55.1008 198.524 54.4169C199.297 53.7339 200.477 53.8044 201.159 54.5764L220.892 76.846C221.577 77.6174 221.505 78.7972 220.734 79.4811C220.491 79.696 220.207 79.8369 219.912 79.904Z" fill="#FEFEFF"/>
<path d="M202.724 94.6007C202.119 94.7385 201.46 94.5505 201.019 94.0534L182.475 73.1251C181.832 72.4001 181.899 71.2914 182.624 70.6485C183.351 70.0069 184.459 70.073 185.101 70.7984L203.645 91.7267C204.289 92.4517 204.221 93.5604 203.496 94.2033C203.268 94.405 203.001 94.5375 202.724 94.6007Z" fill="#FEFEFF"/>
<path d="M264.437 44.963C263.774 45.018 263.103 44.7163 262.715 44.119L244.235 15.666C243.674 14.8011 243.919 13.6451 244.784 13.0833C245.648 12.5209 246.804 12.7674 247.366 13.6323L265.846 42.0855C266.408 42.9501 266.162 44.1062 265.297 44.6679C265.03 44.8419 264.734 44.9382 264.437 44.963Z" fill="#FEFEFF"/>
<path d="M212.205 88.4754C211.56 88.6017 210.873 88.4028 210.435 87.9017L189.58 64.0229C188.946 63.2972 189.077 62.2127 189.872 61.6004C190.666 60.9875 191.825 61.0799 192.459 61.8057L213.314 85.6846C213.948 86.4104 213.817 87.4947 213.022 88.1072C212.776 88.2968 212.495 88.4187 212.205 88.4754Z" fill="#FEFEFF"/>
<path d="M272.147 37.5399C271.485 37.5949 270.817 37.2951 270.428 36.7013L253.872 11.3994C253.307 10.5367 253.55 9.37967 254.412 8.81547C255.275 8.24898 256.432 8.49287 256.997 9.35522L273.553 34.6571C274.118 35.5198 273.875 36.677 273.013 37.241C272.744 37.4171 272.446 37.5151 272.147 37.5399Z" fill="#FEFEFF"/>
<path d="M179.021 84.4083C178.765 84.4295 178.502 84.3984 178.244 84.3073C177.273 83.9631 176.763 82.8964 177.108 81.9244C180.41 72.5959 184.393 62.9623 193.479 56.6814C206.404 47.7444 217.289 47.6703 227.817 47.6C229.007 47.5918 230.192 47.5838 231.377 47.5628C232.362 47.545 233.417 47.5414 234.531 47.5379C243.021 47.5108 254.65 47.4741 264.209 40.9137C272.034 35.5442 275.888 24.7183 276.884 21.5283C277.191 20.545 278.237 19.9957 279.222 20.3019C280.206 20.6088 280.755 21.6559 280.448 22.6399C279.363 26.12 275.136 37.9433 266.322 43.9923C255.813 51.2046 243.518 51.2432 234.543 51.2717C233.448 51.2749 232.412 51.2782 231.444 51.2956C230.246 51.3171 229.046 51.3254 227.843 51.3336C217.88 51.4019 207.581 51.4705 195.601 59.7526C187.433 65.3996 183.725 74.4178 180.627 83.1705C180.374 83.8848 179.73 84.3495 179.021 84.4083Z" fill="#FEFEFF"/>
<path d="M191.128 98.625C190.152 98.7062 189.268 98.0125 189.128 97.0289C188.981 96.0086 189.69 95.0628 190.71 94.9163C196.068 94.1489 204.632 91.1523 211.14 85.2342C222.175 75.1987 224.564 62.9564 225.402 54.6206C226.967 39.0541 229.639 28.1054 238.663 18.2078C246.486 9.62739 257.893 7.5488 266.223 6.03039C267.252 5.8457 268.209 6.51896 268.394 7.53257C268.579 8.54675 267.907 9.5191 266.893 9.70399C258.652 11.206 248.395 13.075 241.422 20.7238C233.094 29.8577 230.604 40.2058 229.118 54.9944C228.218 63.9417 225.637 77.0972 213.652 87.9964C206.519 94.4839 197.121 97.7696 191.241 98.6124C191.203 98.618 191.166 98.622 191.128 98.625Z" fill="#FEFEFF"/>
</g>
<g filter="url(#filter1_d_8348_1052)">
<path d="M102.734 45.9352C98.8984 45.4618 95.2463 47.4448 93.3937 50.6236L72.787 45.0386C73.1391 40.2144 69.5517 35.7559 64.6375 35.1495C59.4832 34.5134 54.7704 38.1908 54.1343 43.3451C53.5279 48.2594 56.9804 52.823 61.7455 53.6543L62.0485 74.8656C58.2898 75.7402 55.2385 78.7711 54.7356 82.8466C54.0995 88.0009 57.7769 92.7137 62.9312 93.3497C68.0854 93.9858 72.7982 90.3084 73.4343 85.1541C73.7006 82.9966 73.2181 80.9899 72.2116 79.284L94.8337 61.6319C96.2294 63.1426 98.2834 64.248 100.441 64.5143C105.595 65.1504 110.308 61.473 110.944 56.3187C111.58 51.1644 107.888 46.5712 102.734 45.9352ZM66.8871 75.0976L66.5381 53.2726C68.4396 52.6552 70.0555 51.3944 71.1166 49.7L92.0828 55.3297C92.1141 56.0637 92.1449 56.7977 92.311 57.4265L68.731 75.9345C68.1614 75.6206 67.5915 75.3064 66.8871 75.0976Z" fill="white"/>
</g>
<g opacity="0.75" filter="url(#filter2_d_8348_1052)">
<rect x="122.339" y="69.2888" width="100.376" height="122.681" rx="11.5132" fill="url(#paint0_linear_8348_1052)"/>
</g>
<g filter="url(#filter3_d_8348_1052)">
<rect x="107" y="75.2583" width="109.037" height="132.237" rx="8.95475" fill="url(#paint1_linear_8348_1052)"/>
</g>
<path d="M161.488 93.4969C152.217 93.4969 144.645 101.068 144.645 110.34C144.645 119.611 152.216 127.182 161.488 127.182C170.759 127.182 178.33 119.611 178.33 110.34C178.33 101.068 170.836 93.4969 161.488 93.4969Z" fill="#45B894"/>
<path d="M152.674 109.914C153.346 109.24 154.395 109.24 155.067 109.914L159.012 113.877L167.909 104.941C168.581 104.267 169.63 104.267 170.302 104.941C170.973 105.615 170.973 106.669 170.302 107.344L160.229 117.459C159.893 117.796 159.474 117.965 159.054 117.965C158.634 117.965 158.215 117.796 157.879 117.459L152.674 112.317C152.045 111.643 152.045 110.589 152.674 109.914Z" fill="white"/>
<g filter="url(#filter4_d_8348_1052)">
<g filter="url(#filter5_d_8348_1052)">
<g filter="url(#filter6_i_8348_1052)">
<path fill-rule="evenodd" clip-rule="evenodd" d="M107.469 195.453C106.14 195.453 105.063 196.53 105.063 197.858C105.063 199.187 106.14 200.263 107.469 200.263H107.47V277.237C107.47 282.551 111.777 286.858 117.091 286.858C122.405 286.858 126.713 282.551 126.713 277.237V200.263C128.041 200.263 129.117 199.186 129.117 197.858C129.117 196.53 128.04 195.453 126.712 195.453H107.469Z" fill="#CEDAE9"/>
</g>
<g filter="url(#filter7_i_8348_1052)">
<path d="M107.469 229.664C107.469 229.664 108.672 231.569 112.28 231.569C115.888 231.569 115.888 231.093 119.497 229.663C124.307 227.757 126.713 231.569 126.713 231.569V277.237C126.713 282.551 122.405 286.859 117.091 286.859C111.777 286.859 107.469 282.551 107.469 277.237V229.664Z" fill="white"/>
</g>
</g>
<g filter="url(#filter8_d_8348_1052)">
<g filter="url(#filter9_i_8348_1052)">
<path d="M111.1 263.457L103.648 252.262C103.615 252.213 103.565 252.181 103.53 252.134L92.4433 235.49V194.179H95.9749C97.237 194.179 98.4029 193.506 99.0336 192.413C99.6642 191.321 99.6642 189.974 99.0336 188.882C98.4029 187.789 97.237 187.116 95.9749 187.116H60.6583C59.3962 187.116 58.2303 187.789 57.5997 188.882C56.969 189.974 56.969 191.321 57.5997 192.413C58.2303 193.506 59.3962 194.179 60.6583 194.179H64.19V235.49L57.7202 245.195L57.717 245.202L45.5352 263.454C43.875 265.948 42.992 268.879 43.0001 271.876C43.004 275.621 44.4939 279.212 47.1418 281.861C49.7905 284.509 53.3813 285.999 57.1267 286.002H99.5067C103.252 285.999 106.843 284.509 109.492 281.861C112.14 279.212 113.629 275.621 113.633 271.876C113.641 268.881 112.76 265.951 111.1 263.457Z" fill="white"/>
</g>
<g filter="url(#filter10_i_8348_1052)">
<path fill-rule="evenodd" clip-rule="evenodd" d="M57.4244 245.641C63.6893 246.25 71.588 250.081 77.4197 247.206C78.3594 246.741 79.3385 246.36 80.3468 246.07C80.3926 246.056 80.4379 246.042 80.483 246.027C80.6154 245.985 80.7458 245.944 80.8804 245.908C81.8335 245.657 82.8063 245.481 83.7877 245.385C83.9794 245.365 84.1683 245.354 84.359 245.343C84.4162 245.339 84.4735 245.336 84.5311 245.332C85.4921 245.267 86.457 245.275 87.4163 245.357C87.5417 245.368 87.6646 245.389 87.7878 245.41C87.8785 245.426 87.9693 245.441 88.0612 245.453C92.3685 246.015 94.4154 246.721 100.516 247.66L103.53 252.135C103.547 252.157 103.566 252.176 103.586 252.194C103.608 252.215 103.631 252.236 103.648 252.262L111.1 263.458C112.76 265.952 113.641 268.881 113.633 271.876C113.629 275.622 112.14 279.213 109.492 281.861C106.843 284.509 103.252 285.999 99.5067 286.003H57.1267C53.3813 285.999 49.7905 284.509 47.1418 281.861C44.4939 279.213 43.004 275.622 43.0001 271.876C42.992 268.88 43.875 265.949 45.5352 263.455L57.4244 245.641Z" fill="#78C4DC"/>
</g>
<circle cx="97.9222" cy="270.617" r="4.15672" fill="white"/>
<circle cx="92.5579" cy="259.832" r="2.31579" fill="white"/>
<circle cx="118.001" cy="247.296" r="1.82228" fill="#D2DBED" fill-opacity="0.42"/>
<circle cx="120.917" cy="256.043" r="2.55119" fill="#D2DBED" fill-opacity="0.42"/>
</g>
</g>
<g filter="url(#filter11_d_8348_1052)">
<path d="M270.052 132.768C271.625 131.081 271.533 128.439 269.847 126.867L251.219 109.49C249.532 107.918 246.891 108.01 245.317 109.696C243.745 111.382 243.837 114.024 245.523 115.597L264.151 132.973C265.837 134.546 268.479 134.454 270.052 132.768Z" fill="#90ADC8"/>
<g filter="url(#filter12_i_8348_1052)">
<path d="M261.665 130.655L189.186 208.356L175.528 195.616L248.008 117.915L261.665 130.655Z" fill="#90ADC8"/>
</g>
<path d="M188.006 214.034L191.001 210.822C191.214 210.594 191.202 210.236 190.973 210.023L173.74 193.948C173.512 193.735 173.154 193.748 172.941 193.976L169.946 197.188C169.733 197.416 169.745 197.774 169.973 197.986L187.207 214.062C187.435 214.275 187.792 214.262 188.006 214.034Z" fill="white"/>
<path d="M188.006 214.034L191.002 210.822C191.214 210.594 191.202 210.236 190.974 210.023L183.653 203.195L179.886 207.233L187.207 214.062C187.435 214.274 187.793 214.262 188.006 214.034Z" fill="white"/>
<path d="M182.572 209.739L175.648 217.161C175.369 217.461 174.901 217.477 174.602 217.198L167.72 210.779C167.421 210.5 167.405 210.031 167.684 209.732L174.608 202.309L182.572 209.739Z" fill="#90ADC8"/>
<g filter="url(#filter13_i_8348_1052)">
<path d="M255.526 142.642L201.703 200.342C201.372 200.697 200.816 200.716 200.461 200.385L181.165 182.386C180.811 182.055 180.791 181.499 181.122 181.144L234.945 123.444C235.276 123.089 235.832 123.07 236.187 123.401L255.483 141.4C255.837 141.731 255.857 142.287 255.526 142.642Z" fill="white"/>
</g>
<path d="M233.871 167.282V207.339C233.871 229.495 215.91 247.449 193.754 247.449H188.579C177.49 247.449 167.232 243.856 158.921 237.771L156.995 240.348L154.318 243.927C164.003 251.057 175.972 255.274 188.922 255.274H197.362C223.112 255.274 243.993 234.399 243.993 208.642V167.282H233.871Z" fill="white"/>
<path d="M165.15 239.38L159.561 247.615C159.222 248.114 158.543 248.244 158.044 247.905L136.814 233.496C136.315 233.157 136.186 232.478 136.524 231.979L142.114 223.744L165.15 239.38Z" fill="white"/>
<path d="M165.15 239.38L162.049 243.949L139.012 228.313L142.113 223.744L165.15 239.38Z" fill="white"/>
<g filter="url(#filter14_i_8348_1052)">
<path d="M176.916 235.387L171.987 242.65C171.635 243.168 170.93 243.303 170.412 242.951L136.851 220.172C136.333 219.821 136.198 219.116 136.55 218.598L141.48 211.335C141.831 210.817 142.536 210.682 143.054 211.034L176.615 233.813C177.133 234.164 177.268 234.869 176.916 235.387Z" fill="#90ADC8"/>
</g>
<path d="M198.88 250.9C198.88 253.383 196.867 255.396 194.384 255.396C191.9 255.396 189.887 253.383 189.887 250.9C189.887 248.416 191.9 246.403 194.384 246.403C196.867 246.403 198.88 248.416 198.88 250.9Z" fill="#90ADC8"/>
<path fill-rule="evenodd" clip-rule="evenodd" d="M204.106 278.747V249.948C204.106 244.672 199.832 240.398 194.556 240.398H194.384H194.22C188.944 240.398 184.663 244.672 184.663 249.948V278.747H194.384H204.106Z" fill="#90ADC8"/>
<g filter="url(#filter15_i_8348_1052)">
<path d="M233.331 285.622H136V274.897C136 273.577 137.07 272.506 138.39 272.506H230.941C232.261 272.506 233.331 273.577 233.331 274.897V285.622Z" fill="#90ADC8"/>
<path d="M233.331 286.692H136V278.984H233.331V286.692Z" fill="#90ADC8"/>
</g>
</g>
<circle cx="194.382" cy="250.115" r="4.42957" fill="white"/>
<path d="M253.295 159.752C253.295 167.58 246.949 173.926 239.121 173.926C231.292 173.926 224.946 167.58 224.946 159.752C224.946 151.923 231.292 145.577 239.121 145.577C246.949 145.577 253.295 151.923 253.295 159.752ZM233.051 159.752C233.051 163.104 235.769 165.821 239.121 165.821C242.473 165.821 245.19 163.104 245.19 159.752C245.19 156.4 242.473 153.682 239.121 153.682C235.769 153.682 233.051 156.4 233.051 159.752Z" fill="#90ADC8"/>
<circle cx="239.209" cy="159.752" r="6.20141" fill="white"/>
<circle opacity="0.8" cx="71" cy="329" r="6" fill="#E6EBF1" fill-opacity="0.35"/>
<circle opacity="0.8" cx="212.75" cy="343.663" r="8.33684" fill="#F2F5F9" fill-opacity="0.5"/>
<g filter="url(#filter16_d_8348_1052)">
<rect x="32.2915" y="286.449" width="261.1" height="14.3647" rx="7.18236" fill="white"/>
</g>
<g filter="url(#filter17_i_8348_1052)">
<path fill-rule="evenodd" clip-rule="evenodd" d="M163.404 4.08026C159.995 5.28349 158.207 9.02227 159.41 12.4311L161.787 19.1649L155.055 21.5412C151.646 22.7444 149.858 26.4832 151.062 29.892C152.265 33.3008 156.004 35.0888 159.412 33.8855L166.144 31.5092L168.521 38.242C169.724 41.6508 173.463 43.4388 176.872 42.2355C180.281 41.0323 182.069 37.2935 180.865 33.8847L178.489 27.152L185.223 24.7749C188.632 23.5717 190.42 19.8329 189.217 16.4241C188.014 13.0153 184.275 11.2273 180.866 12.4305L174.132 14.8076L171.755 8.07381C170.551 4.66501 166.813 2.87704 163.404 4.08026Z" fill="#D9E2F3"/>
</g>
<path d="M57.0147 171.717C60.4801 170.771 63.4215 168.509 65.192 165.429C66.9625 162.35 67.4169 158.704 66.4554 155.295C65.4939 151.885 63.1952 148.991 60.065 147.25C56.9347 145.508 53.2294 145.061 49.764 146.007C50.8442 135.685 41.2999 125.538 30.7494 125.814C20.1989 126.091 11.2021 136.718 12.8594 146.982C9.56875 146.866 6.36607 148.041 3.95595 150.248C1.54582 152.456 0.125683 155.515 0.00794754 158.752C-0.109787 161.99 1.08452 165.141 3.32814 167.512C5.57176 169.883 8.68091 171.28 11.9716 171.396L57.0147 171.717Z" fill="#CCE2F6"/>
<defs>
<filter id="filter0_d_8348_1052" x="167" y="-0.000106812" width="123.533" height="112.632" filterUnits="userSpaceOnUse" color-interpolation-filters="sRGB">
<feFlood flood-opacity="0" result="BackgroundImageFix"/>
<feColorMatrix in="SourceAlpha" type="matrix" values="0 0 0 0 0 0 0 0 0 0 0 0 0 0 0 0 0 0 127 0" result="hardAlpha"/>
<feOffset dy="4"/>
<feGaussianBlur stdDeviation="5"/>
<feComposite in2="hardAlpha" operator="out"/>
<feColorMatrix type="matrix" values="0 0 0 0 0.75316 0 0 0 0 0.783562 0 0 0 0 0.829167 0 0 0 0.25 0"/>
<feBlend mode="normal" in2="BackgroundImageFix" result="effect1_dropShadow_8348_1052"/>
<feBlend mode="normal" in="SourceGraphic" in2="effect1_dropShadow_8348_1052" result="shape"/>
</filter>
<filter id="filter1_d_8348_1052" x="41.0652" y="23.9023" width="82.9502" height="84.3433" filterUnits="userSpaceOnUse" color-interpolation-filters="sRGB">
<feFlood flood-opacity="0" result="BackgroundImageFix"/>
<feColorMatrix in="SourceAlpha" type="matrix" values="0 0 0 0 0 0 0 0 0 0 0 0 0 0 0 0 0 0 127 0" result="hardAlpha"/>
<feOffset dy="1.8244"/>
<feGaussianBlur stdDeviation="6.5"/>
<feComposite in2="hardAlpha" operator="out"/>
<feColorMatrix type="matrix" values="0 0 0 0 0.87451 0 0 0 0 0.909804 0 0 0 0 0.956863 0 0 0 0.53 0"/>
<feBlend mode="normal" in2="BackgroundImageFix" result="effect1_dropShadow_8348_1052"/>
<feBlend mode="normal" in="SourceGraphic" in2="effect1_dropShadow_8348_1052" result="shape"/>
</filter>
<filter id="filter2_d_8348_1052" x="110.826" y="60.3341" width="123.402" height="145.708" filterUnits="userSpaceOnUse" color-interpolation-filters="sRGB">
<feFlood flood-opacity="0" result="BackgroundImageFix"/>
<feColorMatrix in="SourceAlpha" type="matrix" values="0 0 0 0 0 0 0 0 0 0 0 0 0 0 0 0 0 0 127 0" result="hardAlpha"/>
<feOffset dy="2.5585"/>
<feGaussianBlur stdDeviation="5.75662"/>
<feComposite in2="hardAlpha" operator="out"/>
<feColorMatrix type="matrix" values="0 0 0 0 0.85098 0 0 0 0 0.886275 0 0 0 0 0.929412 0 0 0 0.9 0"/>
<feBlend mode="normal" in2="BackgroundImageFix" result="effect1_dropShadow_8348_1052"/>
<feBlend mode="normal" in="SourceGraphic" in2="effect1_dropShadow_8348_1052" result="shape"/>
</filter>
<filter id="filter3_d_8348_1052" x="103.487" y="66.3036" width="132.064" height="155.263" filterUnits="userSpaceOnUse" color-interpolation-filters="sRGB">
<feFlood flood-opacity="0" result="BackgroundImageFix"/>
<feColorMatrix in="SourceAlpha" type="matrix" values="0 0 0 0 0 0 0 0 0 0 0 0 0 0 0 0 0 0 127 0" result="hardAlpha"/>
<feOffset dx="8" dy="2.5585"/>
<feGaussianBlur stdDeviation="5.75662"/>
<feComposite in2="hardAlpha" operator="out"/>
<feColorMatrix type="matrix" values="0 0 0 0 0.780278 0 0 0 0 0.824444 0 0 0 0 0.883333 0 0 0 0.49 0"/>
<feBlend mode="normal" in2="BackgroundImageFix" result="effect1_dropShadow_8348_1052"/>
<feBlend mode="normal" in="SourceGraphic" in2="effect1_dropShadow_8348_1052" result="shape"/>
</filter>
<filter id="filter4_d_8348_1052" x="42.0462" y="186.162" width="99.4699" height="113.096" filterUnits="userSpaceOnUse" color-interpolation-filters="sRGB">
<feFlood flood-opacity="0" result="BackgroundImageFix"/>
<feColorMatrix in="SourceAlpha" type="matrix" values="0 0 0 0 0 0 0 0 0 0 0 0 0 0 0 0 0 0 127 0" result="hardAlpha"/>
<feOffset dx="5.7226" dy="5.7226"/>
<feGaussianBlur stdDeviation="3.33818"/>
<feComposite in2="hardAlpha" operator="out"/>
<feColorMatrix type="matrix" values="0 0 0 0 0.87451 0 0 0 0 0.909804 0 0 0 0 0.956863 0 0 0 0.25 0"/>
<feBlend mode="normal" in2="BackgroundImageFix" result="effect1_dropShadow_8348_1052"/>
<feBlend mode="normal" in="SourceGraphic" in2="effect1_dropShadow_8348_1052" result="shape"/>
</filter>
<filter id="filter5_d_8348_1052" x="100.063" y="191.453" width="40.0541" height="107.406" filterUnits="userSpaceOnUse" color-interpolation-filters="sRGB">
<feFlood flood-opacity="0" result="BackgroundImageFix"/>
<feColorMatrix in="SourceAlpha" type="matrix" values="0 0 0 0 0 0 0 0 0 0 0 0 0 0 0 0 0 0 127 0" result="hardAlpha"/>
<feOffset dx="3" dy="4"/>
<feGaussianBlur stdDeviation="4"/>
<feComposite in2="hardAlpha" operator="out"/>
<feColorMatrix type="matrix" values="0 0 0 0 0.680347 0 0 0 0 0.731542 0 0 0 0 0.808333 0 0 0 0.25 0"/>
<feBlend mode="normal" in2="BackgroundImageFix" result="effect1_dropShadow_8348_1052"/>
<feBlend mode="normal" in="SourceGraphic" in2="effect1_dropShadow_8348_1052" result="shape"/>
</filter>
<filter id="filter6_i_8348_1052" x="103.063" y="195.453" width="26.0541" height="92.4058" filterUnits="userSpaceOnUse" color-interpolation-filters="sRGB">
<feFlood flood-opacity="0" result="BackgroundImageFix"/>
<feBlend mode="normal" in="SourceGraphic" in2="BackgroundImageFix" result="shape"/>
<feColorMatrix in="SourceAlpha" type="matrix" values="0 0 0 0 0 0 0 0 0 0 0 0 0 0 0 0 0 0 127 0" result="hardAlpha"/>
<feOffset dx="-2" dy="1"/>
<feGaussianBlur stdDeviation="2"/>
<feComposite in2="hardAlpha" operator="arithmetic" k2="-1" k3="1"/>
<feColorMatrix type="matrix" values="0 0 0 0 0.678524 0 0 0 0 0.778113 0 0 0 0 0.870833 0 0 0 1 0"/>
<feBlend mode="normal" in2="shape" result="effect1_innerShadow_8348_1052"/>
</filter>
<filter id="filter7_i_8348_1052" x="105.469" y="229.129" width="21.2433" height="57.7293" filterUnits="userSpaceOnUse" color-interpolation-filters="sRGB">
<feFlood flood-opacity="0" result="BackgroundImageFix"/>
<feBlend mode="normal" in="SourceGraphic" in2="BackgroundImageFix" result="shape"/>
<feColorMatrix in="SourceAlpha" type="matrix" values="0 0 0 0 0 0 0 0 0 0 0 0 0 0 0 0 0 0 127 0" result="hardAlpha"/>
<feOffset dx="-2"/>
<feGaussianBlur stdDeviation="2"/>
<feComposite in2="hardAlpha" operator="arithmetic" k2="-1" k3="1"/>
<feColorMatrix type="matrix" values="0 0 0 0 0.905882 0 0 0 0 0.929412 0 0 0 0 0.952941 0 0 0 1 0"/>
<feBlend mode="normal" in2="shape" result="effect1_innerShadow_8348_1052"/>
</filter>
<filter id="filter8_d_8348_1052" x="34" y="180.116" width="102.468" height="120.887" filterUnits="userSpaceOnUse" color-interpolation-filters="sRGB">
<feFlood flood-opacity="0" result="BackgroundImageFix"/>
<feColorMatrix in="SourceAlpha" type="matrix" values="0 0 0 0 0 0 0 0 0 0 0 0 0 0 0 0 0 0 127 0" result="hardAlpha"/>
<feOffset dx="2" dy="4"/>
<feGaussianBlur stdDeviation="5.5"/>
<feComposite in2="hardAlpha" operator="out"/>
<feColorMatrix type="matrix" values="0 0 0 0 0.711181 0 0 0 0 0.753375 0 0 0 0 0.816667 0 0 0 0.3 0"/>
<feBlend mode="normal" in2="BackgroundImageFix" result="effect1_dropShadow_8348_1052"/>
<feBlend mode="normal" in="SourceGraphic" in2="effect1_dropShadow_8348_1052" result="shape"/>
</filter>
<filter id="filter9_i_8348_1052" x="40" y="187.116" width="73.6334" height="99.8867" filterUnits="userSpaceOnUse" color-interpolation-filters="sRGB">
<feFlood flood-opacity="0" result="BackgroundImageFix"/>
<feBlend mode="normal" in="SourceGraphic" in2="BackgroundImageFix" result="shape"/>
<feColorMatrix in="SourceAlpha" type="matrix" values="0 0 0 0 0 0 0 0 0 0 0 0 0 0 0 0 0 0 127 0" result="hardAlpha"/>
<feOffset dx="-3" dy="1"/>
<feGaussianBlur stdDeviation="2"/>
<feComposite in2="hardAlpha" operator="arithmetic" k2="-1" k3="1"/>
<feColorMatrix type="matrix" values="0 0 0 0 0.78 0 0 0 0 0.814667 0 0 0 0 0.866667 0 0 0 0.25 0"/>
<feBlend mode="normal" in2="shape" result="effect1_innerShadow_8348_1052"/>
</filter>
<filter id="filter10_i_8348_1052" x="39" y="243.289" width="74.6334" height="42.7145" filterUnits="userSpaceOnUse" color-interpolation-filters="sRGB">
<feFlood flood-opacity="0" result="BackgroundImageFix"/>
<feBlend mode="normal" in="SourceGraphic" in2="BackgroundImageFix" result="shape"/>
<feColorMatrix in="SourceAlpha" type="matrix" values="0 0 0 0 0 0 0 0 0 0 0 0 0 0 0 0 0 0 127 0" result="hardAlpha"/>
<feOffset dx="-5" dy="-2"/>
<feGaussianBlur stdDeviation="2"/>
<feComposite in2="hardAlpha" operator="arithmetic" k2="-1" k3="1"/>
<feColorMatrix type="matrix" values="0 0 0 0 0.399306 0 0 0 0 0.729167 0 0 0 0 0.833333 0 0 0 1 0"/>
<feBlend mode="normal" in2="shape" result="effect1_innerShadow_8348_1052"/>
</filter>
<filter id="filter11_d_8348_1052" x="129.324" y="103.6" width="152.342" height="195.491" filterUnits="userSpaceOnUse" color-interpolation-filters="sRGB">
<feFlood flood-opacity="0" result="BackgroundImageFix"/>
<feColorMatrix in="SourceAlpha" type="matrix" values="0 0 0 0 0 0 0 0 0 0 0 0 0 0 0 0 0 0 127 0" result="hardAlpha"/>
<feOffset dx="1.90753" dy="3.81507"/>
<feGaussianBlur stdDeviation="4.29195"/>
<feComposite in2="hardAlpha" operator="out"/>
<feColorMatrix type="matrix" values="0 0 0 0 0.906424 0 0 0 0 0.923313 0 0 0 0 0.945833 0 0 0 0.68 0"/>
<feBlend mode="multiply" in2="BackgroundImageFix" result="effect1_dropShadow_8348_1052"/>
<feBlend mode="normal" in="SourceGraphic" in2="effect1_dropShadow_8348_1052" result="shape"/>
</filter>
<filter id="filter12_i_8348_1052" x="175.528" y="117.915" width="86.1377" height="94.4412" filterUnits="userSpaceOnUse" color-interpolation-filters="sRGB">
<feFlood flood-opacity="0" result="BackgroundImageFix"/>
<feBlend mode="normal" in="SourceGraphic" in2="BackgroundImageFix" result="shape"/>
<feColorMatrix in="SourceAlpha" type="matrix" values="0 0 0 0 0 0 0 0 0 0 0 0 0 0 0 0 0 0 127 0" result="hardAlpha"/>
<feOffset dy="4"/>
<feGaussianBlur stdDeviation="2"/>
<feComposite in2="hardAlpha" operator="arithmetic" k2="-1" k3="1"/>
<feColorMatrix type="matrix" values="0 0 0 0 0.469688 0 0 0 0 0.584894 0 0 0 0 0.695833 0 0 0 1 0"/>
<feBlend mode="normal" in2="shape" result="effect1_innerShadow_8348_1052"/>
</filter>
<filter id="filter13_i_8348_1052" x="180.886" y="123.165" width="78.8757" height="81.4564" filterUnits="userSpaceOnUse" color-interpolation-filters="sRGB">
<feFlood flood-opacity="0" result="BackgroundImageFix"/>
<feBlend mode="normal" in="SourceGraphic" in2="BackgroundImageFix" result="shape"/>
<feColorMatrix in="SourceAlpha" type="matrix" values="0 0 0 0 0 0 0 0 0 0 0 0 0 0 0 0 0 0 127 0" result="hardAlpha"/>
<feOffset dx="4" dy="4"/>
<feGaussianBlur stdDeviation="4.5"/>
<feComposite in2="hardAlpha" operator="arithmetic" k2="-1" k3="1"/>
<feColorMatrix type="matrix" values="0 0 0 0 0.646059 0 0 0 0 0.699302 0 0 0 0 0.779167 0 0 0 0.25 0"/>
<feBlend mode="normal" in2="shape" result="effect1_innerShadow_8348_1052"/>
</filter>
<filter id="filter14_i_8348_1052" x="132.354" y="207.838" width="44.7578" height="35.309" filterUnits="userSpaceOnUse" color-interpolation-filters="sRGB">
<feFlood flood-opacity="0" result="BackgroundImageFix"/>
<feBlend mode="normal" in="SourceGraphic" in2="BackgroundImageFix" result="shape"/>
<feColorMatrix in="SourceAlpha" type="matrix" values="0 0 0 0 0 0 0 0 0 0 0 0 0 0 0 0 0 0 127 0" result="hardAlpha"/>
<feOffset dx="-4" dy="-3"/>
<feGaussianBlur stdDeviation="2"/>
<feComposite in2="hardAlpha" operator="arithmetic" k2="-1" k3="1"/>
<feColorMatrix type="matrix" values="0 0 0 0 0.478431 0 0 0 0 0.592157 0 0 0 0 0.705882 0 0 0 1 0"/>
<feBlend mode="normal" in2="shape" result="effect1_innerShadow_8348_1052"/>
</filter>
<filter id="filter15_i_8348_1052" x="130" y="272.506" width="103.331" height="15.1855" filterUnits="userSpaceOnUse" color-interpolation-filters="sRGB">
<feFlood flood-opacity="0" result="BackgroundImageFix"/>
<feBlend mode="normal" in="SourceGraphic" in2="BackgroundImageFix" result="shape"/>
<feColorMatrix in="SourceAlpha" type="matrix" values="0 0 0 0 0 0 0 0 0 0 0 0 0 0 0 0 0 0 127 0" result="hardAlpha"/>
<feOffset dx="-6" dy="1"/>
<feGaussianBlur stdDeviation="6.5"/>
<feComposite in2="hardAlpha" operator="arithmetic" k2="-1" k3="1"/>
<feColorMatrix type="matrix" values="0 0 0 0 0.478431 0 0 0 0 0.592157 0 0 0 0 0.705882 0 0 0 1 0"/>
<feBlend mode="normal" in2="shape" result="effect1_innerShadow_8348_1052"/>
</filter>
<filter id="filter16_d_8348_1052" x="31.3377" y="283.588" width="268.73" height="21.9948" filterUnits="userSpaceOnUse" color-interpolation-filters="sRGB">
<feFlood flood-opacity="0" result="BackgroundImageFix"/>
<feColorMatrix in="SourceAlpha" type="matrix" values="0 0 0 0 0 0 0 0 0 0 0 0 0 0 0 0 0 0 127 0" result="hardAlpha"/>
<feOffset dx="2.8613" dy="0.953767"/>
<feGaussianBlur stdDeviation="1.90753"/>
<feComposite in2="hardAlpha" operator="out"/>
<feColorMatrix type="matrix" values="0 0 0 0 0.87451 0 0 0 0 0.909804 0 0 0 0 0.956863 0 0 0 0.25 0"/>
<feBlend mode="normal" in2="BackgroundImageFix" result="effect1_dropShadow_8348_1052"/>
<feBlend mode="normal" in="SourceGraphic" in2="effect1_dropShadow_8348_1052" result="shape"/>
</filter>
<filter id="filter17_i_8348_1052" x="149.687" y="1.70526" width="39.9053" height="40.9053" filterUnits="userSpaceOnUse" color-interpolation-filters="sRGB">
<feFlood flood-opacity="0" result="BackgroundImageFix"/>
<feBlend mode="normal" in="SourceGraphic" in2="BackgroundImageFix" result="shape"/>
<feColorMatrix in="SourceAlpha" type="matrix" values="0 0 0 0 0 0 0 0 0 0 0 0 0 0 0 0 0 0 127 0" result="hardAlpha"/>
<feOffset dx="-1" dy="-2"/>
<feGaussianBlur stdDeviation="6"/>
<feComposite in2="hardAlpha" operator="arithmetic" k2="-1" k3="1"/>
<feColorMatrix type="matrix" values="0 0 0 0 0.670365 0 0 0 0 0.743203 0 0 0 0 0.879167 0 0 0 1 0"/>
<feBlend mode="normal" in2="shape" result="effect1_innerShadow_8348_1052"/>
</filter>
<linearGradient id="paint0_linear_8348_1052" x1="154.374" y1="69.2888" x2="203.092" y2="204.644" gradientUnits="userSpaceOnUse">
<stop stop-color="#FBFCFF"/>
<stop offset="1" stop-color="#EFF2F7"/>
</linearGradient>
<linearGradient id="paint1_linear_8348_1052" x1="135.717" y1="92.1807" x2="157.504" y2="145.659" gradientUnits="userSpaceOnUse">
<stop stop-color="white"/>
<stop offset="1" stop-color="#F8F8F8"/>
</linearGradient>
</defs>
</svg>
